# xmcd
#
# Track frame offsets:
#	150
#	13826
#	27466
#	43767
#	57088
#	68930
#	82445
#	97604
#	113962
#	133392
#	151854
#	165984
#	180046
#	194292
#	209235
#	227899
#	240914
#	252950
#	268655
#
# Disc length: 3800 seconds
#
# Revision: 1
# Processed by: cddbd v1.5.2PL0 Copyright (c) Steve Scherf et al.
# Submitted via: audiograbber 1.83.01
#
DISCID=060ed613
DTITLE=Various Artist - Promo Only Country Radiio November 2017
DYEAR=2017
DGENRE=Country
TTITLE0=Blake Shelton - I'll Name The Dogs
TTITLE1=Midland - Make A Little
TTITLE2=Runaway Joe - Wild West
TTITLE3=Dean Perrett - Henbury Blues
TTITLE4=Jim Brown - Honky-Tonk Women
TTITLE5=Cameron Cusack - Endless Summer
TTITLE6=Cole Swindell - Stay Downtown
TTITLE7=Billy Currimgton - Wake Me Up
TTITLE8=Justin Moore - Kinda Don't Care
TTITLE9=James Meadows - Carolina Moon
TTITLE10=Justin Kemp Band - Still Breathin'
TTITLE11=Lady Antebellum - Heart Break
TTITLE12=Thomas Rhett - Life Changes
TTITLE13=William Michael Morgan - Vinyl
TTITLE14=Kid Rock - Tennessee Mountain Top (Promo Only Clean Edit)
TTITLE15=Jackson Michelson - Rollin
TTITLE16=Aleyce Simmonds - Only On My Terms
TTITLE17=Ashley McBride - A Little Dive Bar In Dahlonega
TTITLE18=Matt Cornell - It's Only Midnight
EXTD=
EXTT0=
EXTT1=
EXTT2=
EXTT3=
EXTT4=
EXTT5=
EXTT6=
EXTT7=
EXTT8=
EXTT9=
EXTT10=
EXTT11=
EXTT12=
EXTT13=
EXTT14=
EXTT15=
EXTT16=
EXTT17=
EXTT18=
PLAYORDER=
